<svg width="46" height="46" viewBox="0 0 46 46" fill="none" xmlns="http://www.w3.org/2000/svg">
<rect width="46" height="46" fill="#1E1E1E"/>
<g id="Home">
<rect width="393" height="852" transform="translate(-328 -216)" fill="#F6F6F6"/>
<g id="Frame 7">
<rect x="-296" y="11" width="329" height="318" rx="18" fill="white"/>
<g id="Frame 19">
</g>
</g>
<g id="Frame 32" filter="url(#filter0_d_0_1)">
<g clip-path="url(#clip0_0_1)">
<path d="M-328 25C-328 8.43146 -314.569 -5 -298 -5H35C51.5685 -5 65 8.43146 65 25V602H-328V25Z" fill="white"/>
<g id="Group 9">
<circle id="Ellipse 6" cx="23" cy="23" r="23" fill="white"/>
<path id="Vector" d="M16 29.486L22.743 22.743L29.486 29.486M29.486 16L22.7417 22.743L16 16" stroke="#141414" stroke-width="1.92914" stroke-linecap="round" stroke-linejoin="round"/>
</g>
</g>
</g>
</g>
<defs>
<filter id="filter0_d_0_1" x="-332" y="-9" width="401" height="615" filterUnits="userSpaceOnUse" color-interpolation-filters="sRGB">
<feFlood flood-opacity="0" result="BackgroundImageFix"/>
<feColorMatrix in="SourceAlpha" type="matrix" values="0 0 0 0 0 0 0 0 0 0 0 0 0 0 0 0 0 0 127 0" result="hardAlpha"/>
<feOffset/>
<feGaussianBlur stdDeviation="2"/>
<feComposite in2="hardAlpha" operator="out"/>
<feColorMatrix type="matrix" values="0 0 0 0 0 0 0 0 0 0 0 0 0 0 0 0 0 0 0.25 0"/>
<feBlend mode="normal" in2="BackgroundImageFix" result="effect1_dropShadow_0_1"/>
<feBlend mode="normal" in="SourceGraphic" in2="effect1_dropShadow_0_1" result="shape"/>
</filter>
<clipPath id="clip0_0_1">
<path d="M-328 25C-328 8.43146 -314.569 -5 -298 -5H35C51.5685 -5 65 8.43146 65 25V602H-328V25Z" fill="white"/>
</clipPath>
</defs>
</svg>
