<svg width="20" height="19" viewBox="0 0 20 19" fill="none" xmlns="http://www.w3.org/2000/svg">
<path d="M10 3.8C9.74804 3.8 9.50641 3.90009 9.32825 4.07825C9.15009 4.25641 9.05 4.49804 9.05 4.75V14.25C9.05 14.502 9.15009 14.7436 9.32825 14.9218C9.50641 15.0999 9.74804 15.2 10 15.2C10.252 15.2 10.4936 15.0999 10.6718 14.9218C10.8499 14.7436 10.95 14.502 10.95 14.25V4.75C10.95 4.49804 10.8499 4.25641 10.6718 4.07825C10.4936 3.90009 10.252 3.8 10 3.8ZM5.25 9.5C4.99804 9.5 4.75641 9.60009 4.57825 9.77825C4.40009 9.95641 4.3 10.198 4.3 10.45V14.25C4.3 14.502 4.40009 14.7436 4.57825 14.9218C4.75641 15.0999 4.99804 15.2 5.25 15.2C5.50196 15.2 5.74359 15.0999 5.92175 14.9218C6.09991 14.7436 6.2 14.502 6.2 14.25V10.45C6.2 10.198 6.09991 9.95641 5.92175 9.77825C5.74359 9.60009 5.50196 9.5 5.25 9.5ZM14.75 7.6C14.498 7.6 14.2564 7.70009 14.0782 7.87825C13.9001 8.05641 13.8 8.29804 13.8 8.55V14.25C13.8 14.502 13.9001 14.7436 14.0782 14.9218C14.2564 15.0999 14.498 15.2 14.75 15.2C15.002 15.2 15.2436 15.0999 15.4218 14.9218C15.5999 14.7436 15.7 14.502 15.7 14.25V8.55C15.7 8.29804 15.5999 8.05641 15.4218 7.87825C15.2436 7.70009 15.002 7.6 14.75 7.6ZM16.65 0H3.35C2.59413 0 1.86922 0.300267 1.33475 0.834746C0.800267 1.36922 0.5 2.09413 0.5 2.85V16.15C0.5 16.9059 0.800267 17.6308 1.33475 18.1653C1.86922 18.6997 2.59413 19 3.35 19H16.65C17.4059 19 18.1308 18.6997 18.6653 18.1653C19.1997 17.6308 19.5 16.9059 19.5 16.15V2.85C19.5 2.09413 19.1997 1.36922 18.6653 0.834746C18.1308 0.300267 17.4059 0 16.65 0ZM17.6 16.15C17.6 16.402 17.4999 16.6436 17.3218 16.8218C17.1436 16.9999 16.902 17.1 16.65 17.1H3.35C3.09804 17.1 2.85641 16.9999 2.67825 16.8218C2.50009 16.6436 2.4 16.402 2.4 16.15V2.85C2.4 2.59804 2.50009 2.35641 2.67825 2.17825C2.85641 2.00009 3.09804 1.9 3.35 1.9H16.65C16.902 1.9 17.1436 2.00009 17.3218 2.17825C17.4999 2.35641 17.6 2.59804 17.6 2.85V16.15Z" fill="#4E4E4E"/>
</svg>
