<svg width="19" height="19" viewBox="0 0 19 19" fill="none" xmlns="http://www.w3.org/2000/svg">
<path d="M16.15 0H2.85C1.235 0 0 1.235 0 2.85V16.15C0 17.765 1.235 19 2.85 19H16.15C17.765 19 19 17.765 19 16.15V2.85C19 1.235 17.765 0 16.15 0ZM5.7 14.25C5.7 14.82 5.32 15.2 4.75 15.2C4.18 15.2 3.8 14.82 3.8 14.25V10.45C3.8 9.88 4.18 9.5 4.75 9.5C5.32 9.5 5.7 9.88 5.7 10.45V14.25ZM10.45 14.25C10.45 14.82 10.07 15.2 9.5 15.2C8.93 15.2 8.55 14.82 8.55 14.25V4.75C8.55 4.18 8.93 3.8 9.5 3.8C10.07 3.8 10.45 4.18 10.45 4.75V14.25ZM15.2 14.25C15.2 14.82 14.82 15.2 14.25 15.2C13.68 15.2 13.3 14.82 13.3 14.25V8.55C13.3 7.98 13.68 7.6 14.25 7.6C14.82 7.6 15.2 7.98 15.2 8.55V14.25Z" fill="#26278D"/>
</svg>
