<svg width="16" height="19" viewBox="0 0 16 19" fill="none" xmlns="http://www.w3.org/2000/svg">
<path d="M2 16.25H5V11.25C5 10.9667 5.096 10.7293 5.288 10.538C5.48 10.3467 5.71733 10.2507 6 10.25H10C10.2833 10.25 10.521 10.346 10.713 10.538C10.905 10.73 11.0007 10.9673 11 11.25V16.25H14V7.25L8 2.75L2 7.25V16.25ZM0 16.25V7.25C0 6.93333 0.0709998 6.63333 0.213 6.35C0.355 6.06667 0.550667 5.83333 0.8 5.65L6.8 1.15C7.15 0.883333 7.55 0.75 8 0.75C8.45 0.75 8.85 0.883333 9.2 1.15L15.2 5.65C15.45 5.83333 15.646 6.06667 15.788 6.35C15.93 6.63333 16.0007 6.93333 16 7.25V16.25C16 16.8 15.804 17.271 15.412 17.663C15.02 18.055 14.5493 18.2507 14 18.25H10C9.71667 18.25 9.47933 18.154 9.288 17.962C9.09667 17.77 9.00067 17.5327 9 17.25V12.25H7V17.25C7 17.5333 6.904 17.771 6.712 17.963C6.52 18.155 6.28267 18.2507 6 18.25H2C1.45 18.25 0.979333 18.0543 0.588 17.663C0.196666 17.2717 0.000666667 16.8007 0 16.25Z" fill="#4E4E4E"/>
</svg>
