<svg width="17" height="19" viewBox="0 0 17 19" fill="none" xmlns="http://www.w3.org/2000/svg">
<path d="M0.5 16.25V7.25C0.5 6.93333 0.571 6.63333 0.713 6.35C0.855 6.06667 1.05067 5.83333 1.3 5.65L7.3 1.15C7.65 0.883333 8.05 0.75 8.5 0.75C8.95 0.75 9.35 0.883333 9.7 1.15L15.7 5.65C15.95 5.83333 16.146 6.06667 16.288 6.35C16.43 6.63333 16.5007 6.93333 16.5 7.25V16.25C16.5 16.8 16.304 17.271 15.912 17.663C15.52 18.055 15.0493 18.2507 14.5 18.25H11.5C11.2167 18.25 10.9793 18.154 10.788 17.962C10.5967 17.77 10.5007 17.5327 10.5 17.25V12.25C10.5 11.9667 10.404 11.7293 10.212 11.538C10.02 11.3467 9.78267 11.2507 9.5 11.25H7.5C7.21667 11.25 6.97933 11.346 6.788 11.538C6.59667 11.73 6.50067 11.9673 6.5 12.25V17.25C6.5 17.5333 6.404 17.771 6.212 17.963C6.02 18.155 5.78267 18.2507 5.5 18.25H2.5C1.95 18.25 1.47933 18.0543 1.088 17.663C0.696666 17.2717 0.500667 16.8007 0.5 16.25Z" fill="#26278D"/>
</svg>
