<svg width="18" height="19" viewBox="0 0 18 19" fill="none" xmlns="http://www.w3.org/2000/svg">
<path d="M9.00333 6.91582C8.36906 6.91582 7.77509 7.1619 7.32536 7.61162C6.87777 8.06134 6.62957 8.65531 6.62957 9.28959C6.62957 9.92386 6.87777 10.5178 7.32536 10.9676C7.77509 11.4152 8.36906 11.6633 9.00333 11.6633C9.63761 11.6633 10.2316 11.4152 10.6813 10.9676C11.1289 10.5178 11.3771 9.92386 11.3771 9.28959C11.3771 8.65531 11.1289 8.06134 10.6813 7.61162C10.4616 7.39027 10.2002 7.21478 9.91214 7.09534C9.62409 6.97589 9.31517 6.91487 9.00333 6.91582ZM17.7495 11.9115L16.3622 10.7257C16.428 10.3227 16.4619 9.91113 16.4619 9.50172C16.4619 9.0923 16.428 8.67864 16.3622 8.27771L17.7495 7.09189C17.8543 7.00218 17.9294 6.88268 17.9646 6.7493C17.9998 6.61591 17.9936 6.47496 17.9468 6.34519L17.9277 6.29003C17.5459 5.22235 16.9738 4.23268 16.2392 3.36897L16.201 3.32442C16.1118 3.21953 15.9929 3.14413 15.86 3.10815C15.727 3.07218 15.5863 3.07732 15.4564 3.1229L13.7339 3.73596C13.0975 3.21412 12.389 2.80258 11.621 2.5162L11.288 0.715197C11.2629 0.579522 11.1971 0.454704 11.0993 0.357325C11.0015 0.259947 10.8765 0.194617 10.7407 0.170017L10.6834 0.15941C9.58033 -0.0399939 8.41785 -0.0399939 7.31476 0.15941L7.25748 0.170017C7.12171 0.194617 6.99664 0.259947 6.89888 0.357325C6.80112 0.454704 6.73531 0.579522 6.71018 0.715197L6.37501 2.52469C5.61436 2.81333 4.90576 3.22387 4.27702 3.7402L2.54178 3.1229C2.41188 3.07696 2.27108 3.07163 2.13808 3.10762C2.00508 3.14362 1.88619 3.21924 1.7972 3.32442L1.75901 3.36897C1.02564 4.23359 0.453689 5.22302 0.0704389 6.29003L0.051347 6.34519C-0.0441126 6.61035 0.0343765 6.90734 0.24863 7.09189L1.65295 8.29044C1.58719 8.68925 1.55537 9.09655 1.55537 9.4996C1.55537 9.90689 1.58719 10.3142 1.65295 10.7088L0.252873 11.9073C0.14807 11.997 0.0730618 12.1165 0.0378214 12.2499C0.00258093 12.3833 0.0087783 12.5242 0.0555896 12.654L0.0746815 12.7092C0.458641 13.7762 1.02503 14.7626 1.76325 15.6302L1.80144 15.6748C1.89065 15.7797 2.00955 15.8551 2.14247 15.891C2.27539 15.927 2.41609 15.9219 2.54602 15.8763L4.28127 15.259C4.91342 15.7787 5.6177 16.1903 6.37925 16.4745L6.71442 18.284C6.73955 18.4197 6.80537 18.5445 6.90312 18.6419C7.00088 18.7392 7.12595 18.8046 7.26172 18.8292L7.319 18.8398C8.43294 19.0402 9.57372 19.0402 10.6877 18.8398L10.7449 18.8292C10.8807 18.8046 11.0058 18.7392 11.1035 18.6419C11.2013 18.5445 11.2671 18.4197 11.2922 18.284L11.6253 16.483C12.3932 16.1945 13.1017 15.7851 13.7381 15.2632L15.4606 15.8763C15.5905 15.9222 15.7313 15.9276 15.8643 15.8916C15.9973 15.8556 16.1162 15.78 16.2052 15.6748L16.2434 15.6302C16.9816 14.7584 17.548 13.7762 17.932 12.7092L17.9511 12.654C18.0423 12.391 17.9638 12.0961 17.7495 11.9115ZM9.00333 13.0189C6.94353 13.0189 5.27405 11.3494 5.27405 9.28959C5.27405 7.22978 6.94353 5.5603 9.00333 5.5603C11.0631 5.5603 12.7326 7.22978 12.7326 9.28959C12.7326 11.3494 11.0631 13.0189 9.00333 13.0189Z" fill="#26278D"/>
</svg>
