<svg width="19" height="19" viewBox="0 0 19 19" fill="none" xmlns="http://www.w3.org/2000/svg">
<path d="M18.2558 11.9149L16.8668 10.7274C16.9326 10.3245 16.9665 9.91311 16.9665 9.50172C16.9665 9.09033 16.9326 8.67894 16.8668 8.27603L18.2558 7.08851C18.3606 6.99882 18.4356 6.87937 18.4708 6.74603C18.506 6.6127 18.4998 6.4718 18.453 6.34207L18.4339 6.28693C18.0516 5.21821 17.479 4.22749 16.7438 3.36266L16.7057 3.31813C16.6165 3.21327 16.4976 3.13789 16.3648 3.10193C16.2319 3.06597 16.0912 3.07111 15.9613 3.11667L14.2373 3.72952C13.6011 3.20786 12.8908 2.79647 12.1231 2.50807L11.7902 0.705579C11.7651 0.569952 11.6993 0.445178 11.6015 0.347834C11.5038 0.250489 11.3788 0.185183 11.2431 0.160592L11.1858 0.149989C10.081 -0.0493452 8.91891 -0.0493452 7.8141 0.149989L7.75684 0.160592C7.62112 0.185183 7.49609 0.250489 7.39836 0.347834C7.30064 0.445178 7.23485 0.569952 7.20973 0.705579L6.87468 2.51655C6.11317 2.80502 5.404 3.21619 4.77531 3.73376L3.03856 3.11667C2.90871 3.07074 2.76796 3.06542 2.63501 3.1014C2.50206 3.13739 2.3832 3.21298 2.29424 3.31813L2.25607 3.36266C1.52181 4.22811 0.949313 5.21866 0.565972 6.28693L0.546887 6.34207C0.451461 6.60714 0.529922 6.90402 0.7441 7.08851L2.15004 8.28875C2.0843 8.68742 2.05249 9.09457 2.05249 9.4996C2.05249 9.90675 2.0843 10.3139 2.15004 10.7104L0.7441 11.9107C0.639335 12.0004 0.564353 12.1198 0.529125 12.2532C0.493897 12.3865 0.500092 12.5274 0.546887 12.6571L0.565972 12.7123C0.949796 13.781 1.51811 14.7671 2.25607 15.6365L2.29424 15.6811C2.38342 15.7859 2.50228 15.8613 2.63515 15.8973C2.76802 15.9332 2.90867 15.9281 3.03856 15.8825L4.77531 15.2654C5.40724 15.785 6.1134 16.1964 6.87468 16.4827L7.20973 18.2936C7.23485 18.4293 7.30064 18.554 7.39836 18.6514C7.49609 18.7487 7.62112 18.814 7.75684 18.8386L7.8141 18.8492C8.92907 19.0496 10.0708 19.0496 11.1858 18.8492L11.2431 18.8386C11.3788 18.814 11.5038 18.7487 11.6015 18.6514C11.6993 18.554 11.7651 18.4293 11.7902 18.2936L12.1231 16.4911C12.8904 16.2035 13.6048 15.7908 14.2373 15.2697L15.9613 15.8825C16.0912 15.9285 16.2319 15.9338 16.3649 15.8978C16.4979 15.8618 16.6167 15.7862 16.7057 15.6811L16.7438 15.6365C17.4818 14.765 18.0501 13.781 18.4339 12.7123L18.453 12.6571C18.5484 12.3963 18.47 12.0994 18.2558 11.9149ZM15.3612 8.52626C15.4142 8.84646 15.4418 9.17515 15.4418 9.50384C15.4418 9.83253 15.4142 10.1612 15.3612 10.4814L15.2213 11.3318L16.8053 12.6868C16.5652 13.2401 16.2621 13.7638 15.902 14.2476L13.9341 13.5499L13.2682 14.097C12.7614 14.5126 12.1973 14.8392 11.5866 15.0682L10.7787 15.3715L10.3991 17.4284C9.80016 17.4963 9.1955 17.4963 8.59659 17.4284L8.217 15.3672L7.41543 15.0597C6.81106 14.8307 6.24911 14.5042 5.74654 14.0906L5.08068 13.5414L3.10006 14.2454C2.73956 13.7598 2.43844 13.2361 2.19669 12.6847L3.79773 11.3169L3.65989 10.4687C3.609 10.1527 3.58143 9.82617 3.58143 9.50384C3.58143 9.17939 3.60688 8.85495 3.65989 8.53898L3.79773 7.69075L2.19669 6.32298C2.43632 5.76951 2.73956 5.24785 3.10006 4.76224L5.08068 5.46627L5.74654 4.91704C6.24911 4.50353 6.81106 4.17696 7.41543 3.94794L8.21913 3.6447L8.59871 1.5835C9.19459 1.51564 9.80319 1.51564 10.4012 1.5835L10.7808 3.64045L11.5887 3.9437C12.1973 4.17272 12.7635 4.49929 13.2703 4.91492L13.9362 5.46203L15.9041 4.76436C16.2646 5.24997 16.5657 5.77375 16.8075 6.3251L15.2234 7.68015L15.3612 8.52626ZM9.50207 5.55957C7.44088 5.55957 5.76986 7.23059 5.76986 9.29179C5.76986 11.353 7.44088 13.024 9.50207 13.024C11.5633 13.024 13.2343 11.353 13.2343 9.29179C13.2343 7.23059 11.5633 5.55957 9.50207 5.55957ZM11.1816 10.9713C10.9613 11.1922 10.6995 11.3674 10.4113 11.4867C10.123 11.6061 9.81405 11.6673 9.50207 11.6668C8.86802 11.6668 8.27214 11.4187 7.82258 10.9713C7.60166 10.751 7.42648 10.4892 7.30711 10.201C7.18775 9.91275 7.12654 9.60376 7.12703 9.29179C7.12703 8.65773 7.37514 8.06185 7.82258 7.61229C8.27214 7.16273 8.86802 6.91674 9.50207 6.91674C10.1361 6.91674 10.732 7.16273 11.1816 7.61229C11.4025 7.83257 11.5777 8.09436 11.697 8.38259C11.8164 8.67082 11.8776 8.97981 11.8771 9.29179C11.8771 9.92584 11.629 10.5217 11.1816 10.9713Z" fill="#4E4E4E"/>
</svg>
